<svg xmlns="http://www.w3.org/2000/svg" width="839" height="297" viewBox="0 0 839 297">
<g>
<path d="M 65.00 227.89 C58.67,230.14 52.96,231.99 52.31,231.99 C49.86,232.01 48.11,228.00 49.19,224.88 C49.75,223.27 66.81,188.70 87.10,148.05 C113.53,95.08 124.54,73.96 125.95,73.51 C127.04,73.17 128.73,73.32 129.71,73.85 C131.11,74.60 161.00,130.37 161.00,132.22 C161.00,132.47 158.53,134.37 155.52,136.44 C147.72,141.82 137.83,152.68 132.49,161.73 C129.98,166.00 123.17,179.04 117.37,190.70 C111.57,202.36 106.27,212.36 105.58,212.93 C104.89,213.50 98.07,216.18 90.42,218.88 C82.76,221.59 71.32,225.64 65.00,227.89 ZM 208.66 229.39 C207.90,230.55 206.20,231.58 204.89,231.67 C203.57,231.76 191.09,227.49 177.14,222.17 L 151.77 212.50 L 144.23 198.62 L 136.68 184.74 L 137.83 177.12 C139.31,167.27 144.94,155.95 153.25,146.09 C160.98,136.92 162.67,135.76 164.30,138.50 C166.61,142.35 191.15,189.67 200.56,208.39 C209.24,225.66 209.93,227.47 208.66,229.39 ZM 252.77 155.17 L 252.50 174.50 L 247.46 174.79 C244.69,174.96 242.10,174.77 241.71,174.38 C240.48,173.15 240.85,114.00 242.09,114.00 C242.69,114.00 251.22,119.40 261.04,126.00 C270.86,132.60 279.36,138.00 279.92,138.00 C280.54,138.00 281.05,133.38 281.22,126.25 L 281.50 114.50 L 287.26 114.20 L 293.03 113.90 L 292.76 144.20 L 292.50 174.50 L 281.50 174.50 L 281.22 163.98 L 280.94 153.46 L 267.84 144.98 C260.63,140.32 254.35,136.35 253.89,136.17 C253.42,135.99 252.92,144.54 252.77,155.17 ZM 350.80 169.25 L 350.50 174.50 L 329.77 174.77 L 309.05 175.04 L 308.49 172.77 C308.19,171.52 308.07,157.90 308.22,142.50 L 308.50 114.50 L 350.50 114.50 L 350.80 119.25 C351.09,123.66 350.90,124.09 348.30,125.08 C346.76,125.68 340.77,126.06 335.00,125.95 C333.70,125.92 332.52,125.89 331.45,125.86 C325.06,125.70 322.54,125.64 321.56,126.84 C320.92,127.62 320.95,128.94 320.98,131.11 C320.99,131.67 321.00,132.29 321.00,132.97 L 321.00 139.94 L 344.50 140.50 L 344.83 143.37 C345.01,144.95 344.89,147.31 344.56,148.62 C343.97,150.95 343.74,151.00 332.48,151.00 L 321.00 151.00 L 321.00 164.00 L 351.10 164.00 ZM 379.28 164.50 L 372.50 174.50 L 366.34 174.80 C362.95,174.96 359.93,174.69 359.62,174.20 C359.32,173.71 363.33,166.94 368.54,159.15 C373.74,151.37 378.00,144.47 378.00,143.83 C378.00,143.18 377.37,141.95 376.60,141.08 C374.49,138.70 360.00,115.80 360.00,114.84 C360.00,114.38 362.95,114.00 366.55,114.00 L 373.10 114.00 L 379.80 124.48 C383.48,130.25 386.73,134.97 387.00,134.97 C387.27,134.98 390.52,130.26 394.22,124.49 L 400.94 114.00 L 407.47 114.00 C411.06,114.00 414.00,114.44 414.00,114.97 C414.00,115.50 410.13,121.89 405.39,129.16 C400.66,136.44 396.58,142.94 396.32,143.60 C396.07,144.27 400.16,151.26 405.41,159.13 C410.67,167.00 414.59,173.81 414.13,174.27 C413.67,174.73 410.64,174.97 407.40,174.80 L 401.50 174.50 L 394.72 164.50 C390.99,159.00 387.51,154.50 387.00,154.50 C386.49,154.50 383.01,159.00 379.28,164.50 Z" fill="rgb(13,67,115)"/>
<path d="M 585.05 173.07 C579.91,175.03 571.64,175.48 567.00,174.06 C562.21,172.60 556.48,169.13 552.67,165.39 C546.77,159.58 544.72,154.73 544.21,145.35 C543.81,138.20 544.07,136.53 546.28,131.70 C549.26,125.18 555.29,119.01 561.81,115.82 C568.52,112.53 581.54,112.57 588.00,115.89 C612.79,128.65 611.01,163.21 585.05,173.07 ZM 458.27 172.63 C455.53,173.85 450.66,174.43 440.50,174.75 C432.80,175.00 426.16,174.85 425.75,174.43 C425.34,174.01 425.00,160.18 425.00,143.71 L 425.00 113.75 L 439.25 114.28 C456.17,114.91 459.26,115.72 465.41,121.13 C481.92,135.66 478.01,163.85 458.27,172.63 ZM 498.78 163.75 L 498.50 174.50 L 493.24 174.80 C489.59,175.01 487.82,174.70 487.47,173.79 C487.20,173.07 487.09,159.43 487.23,143.49 L 487.50 114.50 L 502.29 114.22 C510.43,114.07 518.75,114.40 520.79,114.96 C525.74,116.30 529.53,119.75 531.96,125.10 C535.68,133.29 534.06,141.31 527.41,147.72 L 523.03 151.94 L 528.51 162.31 C531.53,168.01 534.00,173.20 534.00,173.84 C534.00,175.14 523.27,175.47 521.37,174.23 C520.76,173.83 517.94,168.89 515.12,163.25 L 509.98 153.00 L 499.07 153.00 ZM 630.00 155.50 L 630.00 175.00 L 624.67 175.00 C621.73,175.00 619.03,174.70 618.67,174.33 C618.30,173.97 618.00,160.19 618.00,143.72 C618.00,115.54 618.11,113.79 619.77,114.23 C620.75,114.49 629.73,120.16 639.73,126.85 C649.73,133.53 658.16,139.00 658.46,139.00 C658.76,139.00 659.00,133.38 659.00,126.50 L 659.00 114.00 L 664.45 114.00 C669.82,114.00 669.92,114.05 670.51,117.25 C670.83,119.04 670.97,132.65 670.80,147.50 L 670.50 174.50 L 659.50 174.50 L 659.22 164.37 C658.99,156.29 658.59,153.95 657.22,152.77 C654.53,150.46 631.79,136.00 630.85,136.00 C630.38,136.00 630.00,144.77 630.00,155.50 ZM 728.10 164.05 L 727.50 174.50 L 707.44 174.77 C696.40,174.92 687.06,174.73 686.69,174.35 C686.31,173.98 686.00,160.24 686.00,143.83 L 686.00 114.00 L 728.00 114.00 L 728.00 125.00 L 698.00 125.00 L 698.00 140.00 L 722.10 140.00 L 721.50 150.50 L 709.70 150.78 L 697.91 151.06 L 698.20 157.28 L 698.50 163.50 ZM 769.90 174.03 C763.12,175.97 752.49,174.88 744.90,171.45 C740.45,169.45 740.41,169.31 742.69,164.53 C744.58,160.56 745.72,160.28 750.30,162.67 C752.29,163.70 756.03,164.37 760.16,164.42 C765.90,164.49 767.19,164.16 769.41,162.08 C772.43,159.24 772.70,156.94 770.25,154.72 C768.54,153.18 754.12,147.00 752.22,147.00 C750.08,147.00 742.06,138.72 740.96,135.37 C738.45,127.76 741.90,119.68 749.33,115.76 C754.70,112.94 765.97,112.72 774.25,115.28 C780.56,117.23 780.93,117.98 778.29,123.53 C776.92,126.39 776.16,127.00 774.54,126.51 C773.42,126.17 769.77,125.39 766.44,124.78 C761.07,123.79 759.92,123.88 756.44,125.58 C753.18,127.17 752.50,128.01 752.50,130.45 C752.50,134.13 757.11,137.50 767.63,141.52 C777.92,145.44 781.57,148.73 783.06,155.40 C784.16,160.31 784.08,161.08 782.08,164.65 C779.64,168.99 775.00,172.57 769.90,174.03 ZM 567.01 162.82 C575.28,167.09 584.86,164.16 590.37,155.65 C599.20,142.03 589.83,123.92 574.00,124.03 C570.40,124.05 563.93,127.29 560.81,130.62 C557.12,134.57 556.00,138.04 556.00,145.49 C556.00,151.11 556.37,152.34 559.26,156.17 C561.06,158.55 564.55,161.54 567.01,162.82 ZM 437.00 125.00 L 437.00 164.00 L 443.18 164.00 C454.84,164.00 462.77,157.49 463.77,147.09 C464.99,134.37 456.13,125.07 442.75,125.02 ZM 499.63 141.30 C500.38,142.05 509.95,142.07 515.27,141.34 C521.72,140.45 524.27,132.18 519.55,127.45 C517.30,125.21 516.32,125.00 508.05,125.00 L 499.00 125.00 L 499.00 132.83 C499.00,137.14 499.28,140.95 499.63,141.30 ZM 413.67 217.61 C408.24,222.28 400.52,219.21 399.36,211.92 C398.15,204.31 407.64,199.21 413.55,204.29 C417.64,207.81 417.70,214.14 413.67,217.61 ZM 481.48 219.01 C477.51,220.52 475.36,220.22 472.52,217.75 C468.74,214.47 468.14,209.11 471.15,205.64 C475.99,200.06 484.98,201.89 486.29,208.73 C487.03,212.62 484.60,217.82 481.48,219.01 ZM 546.18 213.99 C542.14,213.98 541.15,214.41 538.90,217.14 C534.23,222.82 534.76,218.46 540.11,207.04 C542.96,200.97 545.61,196.00 546.00,196.00 C546.75,196.00 557.00,217.48 557.00,219.06 C557.00,220.92 555.09,219.94 553.00,217.00 C551.15,214.40 550.24,214.00 546.18,213.99 ZM 606.56 218.53 C601.49,222.37 593.11,218.19 593.03,211.80 C592.96,206.12 596.77,202.00 602.09,202.00 C605.13,202.00 609.00,206.43 609.00,209.91 L 609.00 212.91 L 602.31 213.20 C595.95,213.49 595.71,213.58 597.39,215.25 C598.55,216.40 600.74,217.01 603.82,217.03 C608.15,217.06 608.36,217.17 606.56,218.53 ZM 573.42 219.39 C570.14,220.65 566.02,219.92 563.33,217.61 C561.10,215.69 560.55,214.37 560.55,211.00 C560.55,207.63 561.10,206.31 563.33,204.39 C564.86,203.08 567.19,202.00 568.50,202.00 C571.43,202.00 575.83,205.78 576.06,208.50 C576.43,212.79 576.14,213.00 570.00,213.00 C566.70,213.00 564.00,213.43 564.00,213.96 C564.00,215.53 567.60,217.00 571.43,217.00 C575.11,217.00 576.21,218.32 573.42,219.39 ZM 503.76 218.25 C503.53,218.94 501.47,219.64 499.18,219.81 C493.53,220.22 490.00,216.86 490.00,211.05 C490.00,204.20 495.93,200.36 501.81,203.40 C504.90,205.00 507.08,210.32 505.35,212.04 C504.88,212.51 501.83,213.03 498.56,213.20 C492.91,213.49 492.71,213.58 494.39,215.25 C495.47,216.33 497.67,217.00 500.15,217.00 C502.92,217.00 504.04,217.39 503.76,218.25 ZM 626.98 213.00 L 626.99 219.50 L 621.66 219.76 C617.53,219.96 615.95,219.60 614.66,218.18 C610.71,213.81 614.37,208.31 620.57,209.32 C623.54,209.80 624.07,209.63 623.59,208.37 C623.26,207.53 623.00,206.65 623.00,206.42 C623.00,206.19 621.20,206.00 619.00,206.00 C616.25,206.00 615.00,205.57 615.00,204.61 C615.00,201.48 624.14,202.06 626.21,205.31 C626.63,205.97 626.97,209.43 626.98,213.00 ZM 392.65 218.53 C389.69,220.60 380.00,220.14 380.00,217.93 C380.00,217.42 382.14,216.99 384.75,216.98 C393.98,216.95 394.56,213.08 386.01,208.67 C379.80,205.47 379.04,204.61 379.02,200.78 C378.99,196.45 385.32,193.91 391.79,195.64 C395.76,196.70 393.65,198.52 388.85,198.18 C385.70,197.95 383.98,198.32 383.07,199.41 C381.03,201.88 382.51,203.81 388.48,206.45 C395.99,209.77 397.78,214.94 392.65,218.53 ZM 446.79 211.10 L 446.50 219.20 L 441.50 219.51 C432.73,220.06 431.00,218.38 431.00,209.31 C431.00,204.37 431.33,203.00 432.50,203.00 C433.66,203.00 434.00,204.31 434.00,208.80 C434.00,215.04 435.11,217.00 438.64,217.00 C441.87,217.00 444.00,213.33 444.00,207.78 C444.00,204.14 444.37,203.00 445.54,203.00 C446.82,203.00 447.03,204.35 446.79,211.10 ZM 462.64 225.49 C461.96,227.27 458.43,227.51 457.40,225.84 C456.91,225.05 457.37,224.86 458.84,225.25 C460.30,225.63 461.00,225.35 461.00,224.41 C461.00,223.63 460.55,223.00 460.00,223.00 C459.45,223.00 459.00,222.34 459.00,221.53 C459.00,220.71 457.70,219.38 456.12,218.56 C452.85,216.87 452.00,215.22 452.00,210.59 C452.00,205.52 458.18,200.97 463.00,202.50 C466.59,203.64 465.37,206.00 461.20,206.00 C456.70,206.00 455.00,207.41 455.00,211.13 C455.00,214.82 457.44,217.00 461.57,217.00 C463.46,217.00 465.00,217.45 465.00,218.00 C465.00,218.55 464.66,219.01 464.25,219.02 C463.84,219.02 462.85,219.44 462.06,219.94 C460.88,220.69 460.86,221.12 461.93,222.41 C462.64,223.27 462.96,224.66 462.64,225.49 ZM 520.69 218.50 C518.62,219.95 515.34,220.25 511.75,219.31 C508.57,218.48 509.93,217.12 514.25,216.81 C519.66,216.42 519.75,214.62 514.50,211.68 C511.55,210.02 510.50,208.80 510.50,207.01 C510.50,203.84 514.61,201.43 518.39,202.38 C522.00,203.29 521.21,205.41 517.11,205.82 C513.02,206.22 513.49,207.95 518.32,210.26 C520.34,211.22 522.03,212.35 522.08,212.76 C522.12,213.17 522.30,214.29 522.49,215.25 C522.67,216.22 521.86,217.68 520.69,218.50 ZM 643.40 218.69 C641.65,219.98 636.70,220.33 634.25,219.34 C631.72,218.32 633.12,217.11 637.17,216.81 C642.89,216.39 643.12,214.41 637.73,212.10 C631.16,209.28 630.40,205.32 636.00,203.00 C639.16,201.69 643.33,202.52 642.71,204.33 C642.50,204.98 641.01,205.50 639.41,205.50 C635.28,205.50 635.77,207.67 640.50,210.32 C645.05,212.86 646.33,216.55 643.40,218.69 ZM 474.20 215.74 C475.53,217.34 480.23,217.37 481.80,215.80 C482.46,215.14 483.00,213.21 483.00,211.50 C483.00,207.68 481.44,206.00 477.87,206.00 C472.59,206.00 470.57,211.36 474.20,215.74 ZM 405.19 216.32 C410.25,218.34 413.28,215.96 412.81,210.32 C412.52,206.71 412.30,206.48 408.81,206.19 C405.82,205.94 404.82,206.35 403.53,208.31 C401.80,210.95 402.70,215.32 405.19,216.32 ZM 584.98 212.16 C584.97,218.11 584.09,220.29 582.18,219.11 C581.29,218.56 580.99,216.10 581.20,210.91 C581.49,203.78 581.60,203.50 584.00,203.40 C585.38,203.34 587.51,202.98 588.75,202.58 C592.26,201.46 591.56,204.35 588.00,205.69 C585.19,206.76 585.00,207.16 584.98,212.16 ZM 425.00 207.44 C425.00,217.89 424.37,221.04 422.64,219.31 C422.29,218.95 422.00,213.57 422.00,207.33 C422.00,197.93 422.25,196.00 423.50,196.00 C424.75,196.00 425.00,197.94 425.00,207.44 ZM 543.73 207.00 L 542.16 211.00 L 550.03 211.00 L 548.51 207.38 C547.68,205.39 547.00,203.59 547.00,203.38 C547.00,203.17 546.62,203.00 546.15,203.00 C545.69,203.00 544.60,204.80 543.73,207.00 ZM 617.38 216.54 C619.42,218.03 622.94,217.31 623.73,215.26 C624.40,213.51 622.36,212.04 619.22,212.02 C616.28,212.00 615.11,214.88 617.38,216.54 ZM 493.54 209.07 C494.20,210.13 501.32,210.34 502.34,209.33 C503.16,208.51 500.11,205.00 498.57,205.00 C496.71,205.00 492.92,208.07 493.54,209.07 ZM 597.00 208.53 C597.00,209.77 597.90,210.05 601.17,209.81 C605.80,209.47 607.19,207.71 604.13,206.07 C601.60,204.72 597.00,206.31 597.00,208.53 ZM 482.97 198.04 C482.16,198.55 481.05,198.90 480.50,198.82 C479.95,198.73 477.78,198.49 475.69,198.27 C469.58,197.63 471.70,195.44 478.07,195.80 C484.02,196.14 485.16,196.65 482.97,198.04 ZM 564.19 208.25 C563.91,209.71 564.61,210.00 568.50,210.00 C572.39,210.00 573.09,209.71 572.81,208.25 C572.56,206.93 571.49,206.50 568.50,206.50 C565.51,206.50 564.44,206.93 564.19,208.25 ZM 571.06 196.75 C568.89,199.35 568.00,199.59 568.00,197.57 C568.00,195.97 570.65,193.00 572.07,193.00 C573.48,193.00 573.14,194.26 571.06,196.75 Z" fill="rgb(103,111,124)"/>
<path d="M 0.00 148.50 L 0.00 0.00 L 419.50 0.00 L 839.00 0.00 L 839.00 148.50 L 839.00 297.00 L 419.50 297.00 L 0.00 297.00 L 0.00 148.50 ZM 65.00 227.89 C71.32,225.64 82.76,221.59 90.42,218.88 C98.07,216.18 104.89,213.50 105.58,212.93 C106.27,212.36 111.57,202.36 117.37,190.70 C123.17,179.04 129.98,166.00 132.49,161.73 C137.83,152.68 147.72,141.82 155.52,136.44 C158.53,134.37 161.00,132.47 161.00,132.22 C161.00,130.37 131.11,74.60 129.71,73.85 C128.73,73.32 127.04,73.17 125.95,73.51 C124.54,73.96 113.53,95.08 87.10,148.05 C66.81,188.70 49.75,223.27 49.19,224.88 C48.11,228.00 49.86,232.01 52.31,231.99 C52.96,231.99 58.67,230.14 65.00,227.89 ZM 208.66 229.39 C209.93,227.47 209.24,225.66 200.56,208.39 C191.15,189.67 166.61,142.35 164.30,138.50 C162.67,135.76 160.98,136.92 153.25,146.09 C144.94,155.95 139.31,167.27 137.83,177.12 L 136.68 184.74 L 144.23 198.62 L 151.77 212.50 L 177.14 222.17 C191.09,227.49 203.57,231.76 204.89,231.67 C206.20,231.58 207.90,230.55 208.66,229.39 ZM 462.64 225.49 C462.96,224.66 462.64,223.27 461.93,222.41 C460.86,221.12 460.88,220.69 462.06,219.94 C462.85,219.44 463.84,219.02 464.25,219.02 C464.66,219.01 465.00,218.55 465.00,218.00 C465.00,217.45 463.46,217.00 461.57,217.00 C457.44,217.00 455.00,214.82 455.00,211.13 C455.00,207.41 456.70,206.00 461.20,206.00 C465.37,206.00 466.59,203.64 463.00,202.50 C458.18,200.97 452.00,205.52 452.00,210.59 C452.00,215.22 452.85,216.87 456.12,218.56 C457.70,219.38 459.00,220.71 459.00,221.53 C459.00,222.34 459.45,223.00 460.00,223.00 C460.55,223.00 461.00,223.63 461.00,224.41 C461.00,225.35 460.30,225.63 458.84,225.25 C457.37,224.86 456.91,225.05 457.40,225.84 C458.43,227.51 461.96,227.27 462.64,225.49 ZM 392.65 218.53 C397.78,214.94 395.99,209.77 388.48,206.45 C382.51,203.81 381.03,201.88 383.07,199.41 C383.98,198.32 385.70,197.95 388.85,198.18 C393.65,198.52 395.76,196.70 391.79,195.64 C385.32,193.91 378.99,196.45 379.02,200.78 C379.04,204.61 379.80,205.47 386.01,208.67 C394.56,213.08 393.98,216.95 384.75,216.98 C382.14,216.99 380.00,217.42 380.00,217.93 C380.00,220.14 389.69,220.60 392.65,218.53 ZM 413.67 217.61 C417.70,214.14 417.64,207.81 413.55,204.29 C407.64,199.21 398.15,204.31 399.36,211.92 C400.52,219.21 408.24,222.28 413.67,217.61 ZM 425.00 207.44 C425.00,197.94 424.75,196.00 423.50,196.00 C422.25,196.00 422.00,197.93 422.00,207.33 C422.00,213.57 422.29,218.95 422.64,219.31 C424.37,221.04 425.00,217.89 425.00,207.44 ZM 446.79 211.10 C447.03,204.35 446.82,203.00 445.54,203.00 C444.37,203.00 444.00,204.14 444.00,207.78 C444.00,213.33 441.87,217.00 438.64,217.00 C435.11,217.00 434.00,215.04 434.00,208.80 C434.00,204.31 433.66,203.00 432.50,203.00 C431.33,203.00 431.00,204.37 431.00,209.31 C431.00,218.38 432.73,220.06 441.50,219.51 L 446.50 219.20 L 446.79 211.10 ZM 481.48 219.01 C484.60,217.82 487.03,212.62 486.29,208.73 C484.98,201.89 475.99,200.06 471.15,205.64 C468.14,209.11 468.74,214.47 472.52,217.75 C475.36,220.22 477.51,220.52 481.48,219.01 ZM 503.76 218.25 C504.04,217.39 502.92,217.00 500.15,217.00 C497.67,217.00 495.47,216.33 494.39,215.25 C492.71,213.58 492.91,213.49 498.56,213.20 C501.83,213.03 504.88,212.51 505.35,212.04 C507.08,210.32 504.90,205.00 501.81,203.40 C495.93,200.36 490.00,204.20 490.00,211.05 C490.00,216.86 493.53,220.22 499.18,219.81 C501.47,219.64 503.53,218.94 503.76,218.25 ZM 520.69 218.50 C521.86,217.68 522.67,216.22 522.49,215.25 C522.30,214.29 522.12,213.17 522.08,212.76 C522.03,212.35 520.34,211.22 518.32,210.26 C513.49,207.95 513.02,206.22 517.11,205.82 C521.21,205.41 522.00,203.29 518.39,202.38 C514.61,201.43 510.50,203.84 510.50,207.01 C510.50,208.80 511.55,210.02 514.50,211.68 C519.75,214.62 519.66,216.42 514.25,216.81 C509.93,217.12 508.57,218.48 511.75,219.31 C515.34,220.25 518.62,219.95 520.69,218.50 ZM 546.18 213.99 C550.24,214.00 551.15,214.40 553.00,217.00 C555.09,219.94 557.00,220.92 557.00,219.06 C557.00,217.48 546.75,196.00 546.00,196.00 C545.61,196.00 542.96,200.97 540.11,207.04 C534.76,218.46 534.23,222.82 538.90,217.14 C541.15,214.41 542.14,213.98 546.18,213.99 ZM 573.42 219.39 C576.21,218.32 575.11,217.00 571.43,217.00 C567.60,217.00 564.00,215.53 564.00,213.96 C564.00,213.43 566.70,213.00 570.00,213.00 C576.14,213.00 576.43,212.79 576.06,208.50 C575.83,205.78 571.43,202.00 568.50,202.00 C567.19,202.00 564.86,203.08 563.33,204.39 C561.10,206.31 560.55,207.63 560.55,211.00 C560.55,214.37 561.10,215.69 563.33,217.61 C566.02,219.92 570.14,220.65 573.42,219.39 ZM 584.98 212.16 C585.00,207.16 585.19,206.76 588.00,205.69 C591.56,204.35 592.26,201.46 588.75,202.58 C587.51,202.98 585.38,203.34 584.00,203.40 C581.60,203.50 581.49,203.78 581.20,210.91 C580.99,216.10 581.29,218.56 582.18,219.11 C584.09,220.29 584.97,218.11 584.98,212.16 ZM 606.56 218.53 C608.36,217.17 608.15,217.06 603.82,217.03 C600.74,217.01 598.55,216.40 597.39,215.25 C595.71,213.58 595.95,213.49 602.31,213.20 L 609.00 212.91 L 609.00 209.91 C609.00,206.43 605.13,202.00 602.09,202.00 C596.77,202.00 592.96,206.12 593.03,211.80 C593.11,218.19 601.49,222.37 606.56,218.53 ZM 626.98 213.00 C626.97,209.43 626.63,205.97 626.21,205.31 C624.14,202.06 615.00,201.48 615.00,204.61 C615.00,205.57 616.25,206.00 619.00,206.00 C621.20,206.00 623.00,206.19 623.00,206.42 C623.00,206.65 623.26,207.53 623.59,208.37 C624.07,209.63 623.54,209.80 620.57,209.32 C614.37,208.31 610.71,213.81 614.66,218.18 C615.95,219.60 617.53,219.96 621.66,219.76 L 626.99 219.50 L 626.98 213.00 ZM 643.40 218.69 C646.33,216.55 645.05,212.86 640.50,210.32 C635.77,207.67 635.28,205.50 639.41,205.50 C641.01,205.50 642.50,204.98 642.71,204.33 C643.33,202.52 639.16,201.69 636.00,203.00 C630.40,205.32 631.16,209.28 637.73,212.10 C643.12,214.41 642.89,216.39 637.17,216.81 C633.12,217.11 631.72,218.32 634.25,219.34 C636.70,220.33 641.65,219.98 643.40,218.69 ZM 482.97 198.04 C485.16,196.65 484.02,196.14 478.07,195.80 C471.70,195.44 469.58,197.63 475.69,198.27 C477.78,198.49 479.95,198.73 480.50,198.82 C481.05,198.90 482.16,198.55 482.97,198.04 ZM 571.06 196.75 C573.14,194.26 573.48,193.00 572.07,193.00 C570.65,193.00 568.00,195.97 568.00,197.57 C568.00,199.59 568.89,199.35 571.06,196.75 ZM 252.77 155.17 C252.92,144.54 253.42,135.99 253.89,136.17 C254.35,136.35 260.63,140.32 267.84,144.98 L 280.94 153.46 L 281.22 163.98 L 281.50 174.50 L 287.00 174.50 L 292.50 174.50 L 292.76 144.20 L 293.03 113.90 L 287.26 114.20 L 281.50 114.50 L 281.22 126.25 C281.05,133.38 280.54,138.00 279.92,138.00 C279.36,138.00 270.86,132.60 261.04,126.00 C251.22,119.40 242.69,114.00 242.09,114.00 C240.85,114.00 240.48,173.15 241.71,174.38 C242.10,174.77 244.69,174.96 247.46,174.79 L 252.50 174.50 L 252.77 155.17 ZM 350.80 169.25 L 351.10 164.00 L 336.05 164.00 L 321.00 164.00 L 321.00 157.50 L 321.00 151.00 L 332.48 151.00 C343.74,151.00 343.97,150.95 344.56,148.62 C344.89,147.31 345.01,144.95 344.83,143.37 L 344.50 140.50 L 332.75 140.22 L 321.00 139.94 L 321.00 132.97 C321.00,124.92 319.59,125.63 335.00,125.95 C340.77,126.06 346.76,125.68 348.30,125.08 C350.90,124.09 351.09,123.66 350.80,119.25 L 350.50 114.50 L 329.50 114.50 L 308.50 114.50 L 308.22 142.50 C308.07,157.90 308.19,171.52 308.49,172.77 L 309.05 175.04 L 329.77 174.77 L 350.50 174.50 L 350.80 169.25 ZM 379.28 164.50 C383.01,159.00 386.49,154.50 387.00,154.50 C387.51,154.50 390.99,159.00 394.72,164.50 L 401.50 174.50 L 407.40 174.80 C410.64,174.97 413.67,174.73 414.13,174.27 C414.59,173.81 410.67,167.00 405.41,159.13 C400.16,151.26 396.07,144.27 396.32,143.60 C396.58,142.94 400.66,136.44 405.39,129.16 C410.13,121.89 414.00,115.50 414.00,114.97 C414.00,114.44 411.06,114.00 407.47,114.00 L 400.94 114.00 L 394.22 124.49 C390.52,130.26 387.27,134.98 387.00,134.97 C386.73,134.97 383.48,130.25 379.80,124.48 L 373.10 114.00 L 366.55 114.00 C362.95,114.00 360.00,114.38 360.00,114.84 C360.00,115.80 374.49,138.70 376.60,141.08 C377.37,141.95 378.00,143.18 378.00,143.83 C378.00,144.47 373.74,151.37 368.54,159.15 C363.33,166.94 359.32,173.71 359.62,174.20 C359.93,174.69 362.95,174.96 366.34,174.80 L 372.50 174.50 L 379.28 164.50 ZM 458.27 172.63 C478.01,163.85 481.92,135.66 465.41,121.13 C459.26,115.72 456.17,114.91 439.25,114.28 L 425.00 113.75 L 425.00 143.71 C425.00,160.18 425.34,174.01 425.75,174.43 C426.16,174.85 432.80,175.00 440.50,174.75 C450.66,174.43 455.53,173.85 458.27,172.63 ZM 498.78 163.75 L 499.07 153.00 L 504.52 153.00 L 509.98 153.00 L 515.12 163.25 C517.94,168.89 520.76,173.83 521.37,174.23 C523.27,175.47 534.00,175.14 534.00,173.84 C534.00,173.20 531.53,168.01 528.51,162.31 L 523.03 151.94 L 527.41 147.72 C534.06,141.31 535.68,133.29 531.96,125.10 C529.53,119.75 525.74,116.30 520.79,114.96 C518.75,114.40 510.43,114.07 502.29,114.22 L 487.50 114.50 L 487.23 143.49 C487.09,159.43 487.20,173.07 487.47,173.79 C487.82,174.70 489.59,175.01 493.24,174.80 L 498.50 174.50 L 498.78 163.75 ZM 585.05 173.07 C611.01,163.21 612.79,128.65 588.00,115.89 C581.54,112.57 568.52,112.53 561.81,115.82 C555.29,119.01 549.26,125.18 546.28,131.70 C544.07,136.53 543.81,138.20 544.21,145.35 C544.72,154.73 546.77,159.58 552.67,165.39 C556.48,169.13 562.21,172.60 567.00,174.06 C571.64,175.48 579.91,175.03 585.05,173.07 ZM 630.00 155.50 C630.00,144.77 630.38,136.00 630.85,136.00 C631.79,136.00 654.53,150.46 657.22,152.77 C658.59,153.95 658.99,156.29 659.22,164.37 L 659.50 174.50 L 665.00 174.50 L 670.50 174.50 L 670.80 147.50 C670.97,132.65 670.83,119.04 670.51,117.25 C669.92,114.05 669.82,114.00 664.45,114.00 L 659.00 114.00 L 659.00 126.50 C659.00,133.38 658.76,139.00 658.46,139.00 C658.16,139.00 649.73,133.53 639.73,126.85 C629.73,120.16 620.75,114.49 619.77,114.23 C618.11,113.79 618.00,115.54 618.00,143.72 C618.00,160.19 618.30,173.97 618.67,174.33 C619.03,174.70 621.73,175.00 624.67,175.00 L 630.00 175.00 L 630.00 155.50 ZM 727.80 169.28 L 728.10 164.05 L 713.30 163.78 L 698.50 163.50 L 698.20 157.28 L 697.91 151.06 L 709.70 150.78 L 721.50 150.50 L 721.80 145.25 L 722.10 140.00 L 710.05 140.00 L 698.00 140.00 L 698.00 132.50 L 698.00 125.00 L 713.00 125.00 L 728.00 125.00 L 728.00 119.50 L 728.00 114.00 L 707.00 114.00 L 686.00 114.00 L 686.00 143.83 C686.00,160.24 686.31,173.98 686.69,174.35 C687.06,174.73 696.40,174.92 707.44,174.77 L 727.50 174.50 L 727.80 169.28 ZM 769.90 174.03 C775.00,172.57 779.64,168.99 782.08,164.65 C784.08,161.08 784.16,160.31 783.06,155.40 C781.57,148.73 777.92,145.44 767.63,141.52 C757.11,137.50 752.50,134.13 752.50,130.45 C752.50,128.01 753.18,127.17 756.44,125.58 C759.92,123.88 761.07,123.79 766.44,124.78 C769.77,125.39 773.42,126.17 774.54,126.51 C776.16,127.00 776.92,126.39 778.29,123.53 C780.93,117.98 780.56,117.23 774.25,115.28 C765.97,112.72 754.70,112.94 749.33,115.76 C741.90,119.68 738.45,127.76 740.96,135.37 C742.06,138.72 750.08,147.00 752.22,147.00 C754.12,147.00 768.54,153.18 770.25,154.72 C772.70,156.94 772.43,159.24 769.41,162.08 C767.19,164.16 765.90,164.49 760.16,164.42 C756.03,164.37 752.29,163.70 750.30,162.67 C745.72,160.28 744.58,160.56 742.69,164.53 C740.41,169.31 740.45,169.45 744.90,171.45 C752.49,174.88 763.12,175.97 769.90,174.03 ZM 405.19 216.32 C402.70,215.32 401.80,210.95 403.53,208.31 C404.82,206.35 405.82,205.94 408.81,206.19 C412.30,206.48 412.52,206.71 412.81,210.32 C413.28,215.96 410.25,218.34 405.19,216.32 ZM 474.20 215.74 C470.57,211.36 472.59,206.00 477.87,206.00 C481.44,206.00 483.00,207.68 483.00,211.50 C483.00,213.21 482.46,215.14 481.80,215.80 C480.23,217.37 475.53,217.34 474.20,215.74 ZM 493.54 209.07 C492.92,208.07 496.71,205.00 498.57,205.00 C500.11,205.00 503.16,208.51 502.34,209.33 C501.32,210.34 494.20,210.13 493.54,209.07 ZM 543.73 207.00 C544.60,204.80 545.69,203.00 546.15,203.00 C546.62,203.00 547.00,203.17 547.00,203.38 C547.00,203.59 547.68,205.39 548.51,207.38 L 550.03 211.00 L 546.09 211.00 L 542.16 211.00 L 543.73 207.00 ZM 564.19 208.25 C564.44,206.93 565.51,206.50 568.50,206.50 C571.49,206.50 572.56,206.93 572.81,208.25 C573.09,209.71 572.39,210.00 568.50,210.00 C564.61,210.00 563.91,209.71 564.19,208.25 ZM 597.00 208.53 C597.00,206.31 601.60,204.72 604.13,206.07 C607.19,207.71 605.80,209.47 601.17,209.81 C597.90,210.05 597.00,209.77 597.00,208.53 ZM 617.38 216.54 C615.11,214.88 616.28,212.00 619.22,212.02 C622.36,212.04 624.40,213.51 623.73,215.26 C622.94,217.31 619.42,218.03 617.38,216.54 ZM 437.00 144.50 L 437.00 125.00 L 442.75 125.02 C456.13,125.07 464.99,134.37 463.77,147.09 C462.77,157.49 454.84,164.00 443.18,164.00 L 437.00 164.00 L 437.00 144.50 ZM 499.63 141.30 C499.28,140.95 499.00,137.14 499.00,132.83 L 499.00 125.00 L 508.05 125.00 C516.32,125.00 517.30,125.21 519.55,127.45 C524.27,132.18 521.72,140.45 515.27,141.34 C509.95,142.07 500.38,142.05 499.63,141.30 ZM 567.01 162.82 C564.55,161.54 561.06,158.55 559.26,156.17 C556.37,152.34 556.00,151.11 556.00,145.49 C556.00,138.04 557.12,134.57 560.81,130.62 C563.93,127.29 570.40,124.05 574.00,124.03 C589.83,123.92 599.20,142.03 590.37,155.65 C584.86,164.16 575.28,167.09 567.01,162.82 Z" fill="rgb(254,254,254)"/>
</g>
</svg>